<svg aria-hidden="true" style="position: absolute; width: 0; height: 0; overflow: hidden;" version="1.1" xmlns="http://www.w3.org/2000/svg" xmlns:xlink="http://www.w3.org/1999/xlink">
<defs>
<symbol id="cross" viewBox="0 0 28 32">
<path d="M22.75 0.015c-0.262 0.033-0.657 0.123-0.938 0.212-0.582 0.185-0.927 0.343-2.512 1.153-0.95 0.485-1.27 0.628-1.685 0.748l-0.245 0.072-0.277 0.255c-0.762 0.71-1.365 1.485-2.78 3.582-0.518 0.768-0.897 1.3-1.115 1.555l-0.068 0.080-0.26-0.268c-0.553-0.572-0.998-1.147-1.797-2.322-0.758-1.112-1.008-1.47-1.248-1.795-0.73-0.982-1.393-1.66-2.090-2.127-0.23-0.155-0.965-0.535-1.032-0.535-0.055 0-0.718 0.198-1.058 0.315-1.388 0.482-2.688 1.168-3.695 1.95-0.377 0.292-0.94 0.855-1.19 1.19-1.048 1.402-1.005 2.865 0.12 4.207 0.103 0.123 0.295 0.328 0.422 0.455 0.13 0.125 0.302 0.322 0.385 0.438 0.37 0.518 0.995 1.252 1.613 1.908 0.17 0.178 0.8 0.825 1.4 1.438s1.232 1.265 1.402 1.45c1.14 1.23 1.817 2.2 2.182 3.115l0.090 0.23-0.102 0.245c-0.452 1.093-1.237 2.448-2.075 3.58-0.958 1.293-2.015 2.477-4.030 4.52l-0.718 0.727 0.103 0.323c0.363 1.133 0.937 1.813 1.835 2.168 0.393 0.155 0.678 0.203 1.237 0.203 0.695 0 1.223-0.093 2.035-0.363 1.64-0.545 3.895-1.905 5.622-3.392 0.245-0.21 0.245-0.21 0.42-0.56 0.255-0.508 0.432-0.78 0.647-0.997 0.275-0.275 0.4-0.297 0.672-0.125 0.065 0.043 0.203 0.165 0.305 0.27 0.335 0.345 0.582 0.705 1.285 1.845 0.66 1.075 1.11 1.73 1.378 2.012 0.063 0.067 0.102 0.152 0.168 0.363 0.485 1.57 1.413 2.705 2.72 3.337 1.317 0.635 2.883 0.692 4.41 0.165 1.135-0.39 2.125-1.075 2.857-1.97 0.617-0.76 1.1-1.872 1.17-2.705l0.017-0.18-0.295-0.46c-0.997-1.558-1.995-2.962-3.995-5.608-2.955-3.915-3.633-4.86-4.887-6.82-0.058-0.090-0.105-0.188-0.105-0.215 0-0.090 0.195-0.697 0.358-1.107 0.082-0.213 0.265-0.617 0.407-0.9 0.505-1.005 1.067-1.873 2.45-3.775 1.348-1.853 1.858-2.64 2.385-3.688 0.407-0.803 0.692-1.555 0.863-2.263l0.070-0.29-0.157-0.248c-0.477-0.755-1.005-1.165-1.712-1.34-0.198-0.050-0.762-0.083-0.962-0.058z"></path>
</symbol>
<symbol id="burger" viewBox="0 0 32 32">
<path d="M16 29c-7.168 0-13-5.831-13-13s5.832-13 13-13 13 5.832 13 13-5.831 13-13 13zM16 4c-6.617 0-12 5.383-12 12s5.383 12 12 12 12-5.383 12-12-5.383-12-12-12z"></path>
<path d="M16 26c-5.514 0-10-4.486-10-10s4.486-10 10-10 10 4.486 10 10-4.486 10-10 10zM16 7c-4.963 0-9 4.037-9 9s4.037 9 9 9 9-4.038 9-9-4.038-9-9-9z"></path>
<path d="M21 12.5c0 0.276-0.224 0.5-0.5 0.5v0h-9c-0.276 0-0.5-0.224-0.5-0.5v0-1c0-0.276 0.224-0.5 0.5-0.5v0h9c0.276 0 0.5 0.224 0.5 0.5v0 1z"></path>
<path d="M21 16.5c0 0.276-0.224 0.5-0.5 0.5v0h-9c-0.276 0-0.5-0.224-0.5-0.5v0-1c0-0.276 0.224-0.5 0.5-0.5v0h9c0.276 0 0.5 0.224 0.5 0.5v0 1z"></path>
<path d="M21 20.5c0 0.276-0.224 0.5-0.5 0.5v0h-9c-0.276 0-0.5-0.224-0.5-0.5v0-1c0-0.276 0.224-0.5 0.5-0.5v0h9c0.276 0 0.5 0.224 0.5 0.5v0 1z"></path>
</symbol><symbol id="cross2" viewBox="0 0 32 32">
<path d="M23.734 10.304l-1.504-1.504-5.963 5.962-5.962-5.962-1.504 1.504 5.962 5.962-5.962 5.963 1.504 1.504 5.962-5.963 5.963 5.963 1.504-1.504-5.963-5.963 5.963-5.962z"></path>
</symbol>
</defs>
</svg>
